<?xml version="1.0" standalone="no"?>
<!DOCTYPE svg PUBLIC "-//W3C//DTD SVG 20010904//EN"
 "http://www.w3.org/TR/2001/REC-SVG-20010904/DTD/svg10.dtd">
<svg version="1.0" xmlns="http://www.w3.org/2000/svg"
 width="512.000000pt" height="512.000000pt" viewBox="0 0 512.000000 512.000000"
 preserveAspectRatio="xMidYMid meet">

<g transform="translate(0.000000,512.000000) scale(0.100000,-0.100000)"
fill="#000000" stroke="none">
<path d="M1240 4669 c-53 -24 -83 -50 -113 -99 -20 -31 -23 -53 -27 -200 l-5
-165 -160 -5 c-158 -5 -161 -6 -235 -41 -89 -43 -163 -107 -207 -180 -66 -111
-63 -20 -63 -1656 0 -1046 3 -1498 11 -1535 25 -119 122 -246 230 -300 122
-61 13 -58 1886 -58 1208 0 1728 3 1765 11 125 26 253 119 310 225 61 113 58
29 58 1654 0 965 -4 1500 -11 1529 -30 132 -125 246 -256 309 -78 37 -79 37
-238 42 l-160 5 -5 165 c-4 147 -7 169 -27 200 -81 130 -241 158 -353 62 -73
-62 -84 -95 -88 -274 l-4 -158 -168 0 -168 0 -4 153 c-6 206 -31 260 -143 313
-84 40 -174 28 -245 -34 -72 -61 -83 -95 -88 -274 l-4 -158 -168 0 -168 0 -4
153 c-5 178 -17 217 -84 275 -74 66 -163 79 -249 38 -112 -53 -137 -107 -143
-313 l-4 -153 -168 0 -168 0 -4 158 c-3 136 -7 162 -25 197 -62 116 -191 165
-303 114z m143 -167 c16 -14 17 -45 17 -379 0 -350 -1 -364 -20 -383 -11 -11
-33 -20 -50 -20 -17 0 -39 9 -50 20 -19 19 -20 33 -20 376 0 232 4 362 11 375
21 39 74 45 112 11z m820 -4 c15 -18 17 -52 17 -379 0 -346 -1 -360 -20 -379
-11 -11 -33 -20 -50 -20 -17 0 -39 9 -50 20 -19 19 -20 33 -20 376 0 232 4
362 11 375 22 42 79 45 112 7z m820 0 c15 -18 17 -52 17 -379 0 -346 -1 -360
-20 -379 -11 -11 -33 -20 -50 -20 -17 0 -39 9 -50 20 -19 19 -20 33 -20 376 0
232 4 362 11 375 22 42 79 45 112 7z m820 0 c15 -18 17 -52 17 -379 0 -346 -1
-360 -20 -379 -11 -11 -33 -20 -50 -20 -17 0 -39 9 -50 20 -19 19 -20 33 -20
383 0 334 1 365 18 379 36 32 74 31 105 -4z m-2743 -615 c0 -157 0 -158 30
-210 78 -137 254 -160 365 -48 61 60 75 114 75 282 l0 133 169 0 168 0 5 -154
c4 -140 7 -160 29 -203 32 -61 93 -108 162 -123 102 -23 211 31 258 127 21 42
24 66 27 201 l4 152 168 0 168 0 4 -152 c3 -135 6 -159 27 -201 47 -96 156
-150 258 -127 69 15 130 62 162 123 22 43 25 63 29 203 l5 154 168 0 169 0 0
-133 c0 -168 14 -222 75 -282 111 -112 287 -89 365 48 30 52 30 53 30 210 l0
159 143 -4 c118 -3 150 -7 188 -24 66 -31 114 -78 146 -142 28 -56 28 -60 28
-242 l0 -185 -1965 0 -1965 0 -3 155 c-3 176 7 239 47 302 65 103 149 137 334
138 l127 0 0 -157z m3428 -1835 c-3 -1388 4 -1264 -83 -1357 -26 -27 -69 -59
-98 -72 l-52 -24 -1735 0 -1735 0 -52 24 c-29 13 -72 45 -98 72 -87 93 -80
-31 -83 1357 l-2 1232 1970 0 1970 0 -2 -1232z"/>
<path d="M985 3017 c-26 -14 -48 -37 -62 -67 -21 -40 -23 -58 -23 -197 0 -168
7 -199 56 -244 45 -41 85 -49 244 -49 159 0 199 8 244 49 49 45 56 76 56 244
0 139 -2 157 -22 197 -15 30 -37 53 -63 67 -37 21 -52 23 -215 23 -163 0 -178
-2 -215 -23z m353 -264 l3 -123 -141 0 -140 0 0 118 c0 65 3 122 7 126 4 3 66
5 137 4 l131 -3 3 -122z"/>
<path d="M1910 3029 c-14 -6 -36 -20 -48 -32 -47 -44 -52 -66 -52 -242 0 -192
8 -220 73 -263 39 -26 47 -27 197 -30 99 -2 173 1 200 8 54 15 104 63 119 115
14 52 14 293 0 336 -15 43 -55 88 -96 105 -39 17 -353 19 -393 3z m330 -274
l0 -125 -135 0 -135 0 0 125 0 125 135 0 135 0 0 -125z"/>
<path d="M2815 3026 c-42 -19 -84 -66 -95 -107 -13 -46 -13 -284 1 -334 15
-52 65 -100 119 -115 27 -7 101 -10 200 -8 150 3 158 4 197 30 65 43 73 71 73
266 0 159 -1 171 -22 202 -49 72 -59 75 -261 77 -137 2 -189 -1 -212 -11z
m335 -271 l0 -125 -135 0 -135 0 0 125 0 125 135 0 135 0 0 -125z"/>
<path d="M3705 3017 c-26 -14 -48 -37 -62 -67 -21 -40 -23 -58 -23 -197 0
-168 7 -199 56 -244 45 -41 85 -49 244 -49 159 0 199 8 244 49 49 45 56 76 56
244 0 139 -2 157 -22 197 -15 30 -37 53 -63 67 -37 21 -52 23 -215 23 -163 0
-178 -2 -215 -23z m353 -264 l3 -123 -141 0 -140 0 0 118 c0 65 3 122 7 126 4
3 66 5 137 4 l131 -3 3 -122z"/>
<path d="M1031 2220 c-40 -10 -77 -36 -105 -74 -19 -25 -21 -44 -24 -196 -4
-190 6 -226 70 -272 32 -22 40 -23 228 -23 188 0 196 1 228 23 61 44 72 82 72
256 0 161 -6 195 -43 234 -46 50 -72 56 -237 59 -85 1 -170 -2 -189 -7z m309
-285 l0 -125 -140 0 -140 0 0 125 0 125 140 0 140 0 0 -125z"/>
<path d="M1930 2217 c-49 -16 -73 -36 -99 -77 -19 -32 -21 -49 -21 -206 0
-161 1 -173 23 -205 12 -18 38 -44 56 -56 32 -22 43 -23 213 -23 204 0 237 9
279 77 22 35 24 51 27 184 5 197 -13 254 -91 296 -41 22 -331 30 -387 10z
m310 -282 l0 -125 -135 0 -135 0 0 125 0 125 135 0 135 0 0 -125z"/>
<path d="M2841 2220 c-44 -10 -81 -39 -106 -81 -18 -30 -20 -52 -20 -204 0
-161 1 -172 24 -208 42 -68 75 -77 279 -77 170 0 181 1 213 23 18 12 44 38 56
56 22 32 23 44 23 205 0 155 -2 174 -21 205 -28 46 -56 68 -106 80 -48 13
-291 13 -342 1z m309 -285 l0 -125 -135 0 -135 0 0 125 0 125 135 0 135 0 0
-125z"/>
<path d="M3751 2220 c-40 -10 -77 -36 -105 -74 -19 -25 -21 -44 -24 -199 -2
-163 -1 -174 20 -211 46 -79 54 -81 276 -81 190 0 198 1 230 23 61 44 72 82
72 256 0 161 -6 195 -43 234 -46 50 -72 56 -237 59 -85 1 -170 -2 -189 -7z
m309 -285 l0 -125 -140 0 -140 0 0 125 0 125 140 0 140 0 0 -125z"/>
<path d="M990 1387 c-30 -16 -51 -37 -67 -67 -21 -40 -23 -56 -23 -198 0 -179
12 -218 77 -262 35 -24 44 -25 212 -28 169 -3 178 -2 220 20 31 17 52 38 68
68 21 40 23 56 23 200 0 144 -2 160 -23 200 -16 30 -37 51 -67 67 -40 21 -55
23 -210 23 -155 0 -170 -2 -210 -23z m345 -267 l0 -125 -135 0 -135 0 -3 114
c-1 63 0 121 2 128 4 11 35 13 138 11 l133 -3 0 -125z"/>
<path d="M1900 1388 c-82 -42 -85 -53 -85 -267 l0 -188 27 -35 c46 -60 88 -70
285 -66 168 3 170 3 206 31 63 48 71 74 75 237 4 159 -3 201 -45 251 -44 52
-74 59 -256 59 -149 0 -166 -2 -207 -22z m340 -268 l0 -131 -132 3 -133 3 -3
128 -3 127 136 0 135 0 0 -130z"/>
<path d="M2815 1396 c-39 -17 -70 -52 -90 -98 -21 -53 -21 -303 1 -356 21 -51
61 -90 103 -102 20 -5 106 -10 191 -10 176 0 219 12 261 71 23 33 24 40 24
219 0 179 -1 186 -24 219 -43 60 -84 71 -271 70 -116 0 -174 -4 -195 -13z
m333 -273 l-3 -128 -132 -3 -133 -3 0 131 0 130 135 0 136 0 -3 -127z"/>
<path d="M3710 1387 c-30 -16 -51 -37 -67 -67 -21 -40 -23 -56 -23 -200 0
-144 2 -160 23 -200 16 -30 37 -51 67 -67 40 -21 55 -23 210 -23 155 0 170 2
210 23 30 16 51 37 67 67 21 40 23 56 23 200 0 144 -2 160 -23 200 -16 30 -37
51 -67 67 -40 21 -55 23 -210 23 -155 0 -170 -2 -210 -23z m345 -267 l0 -125
-135 0 -135 0 -3 114 c-1 63 0 121 2 128 4 11 35 13 138 11 l133 -3 0 -125z"/>
</g>
</svg>
