<?xml version="1.0" standalone="no"?>
<!DOCTYPE svg PUBLIC "-//W3C//DTD SVG 20010904//EN"
 "http://www.w3.org/TR/2001/REC-SVG-20010904/DTD/svg10.dtd">
<svg version="1.0" xmlns="http://www.w3.org/2000/svg"
 width="512.000000pt" height="512.000000pt" viewBox="0 0 512.000000 512.000000"
 preserveAspectRatio="xMidYMid meet">

<g transform="translate(0.000000,512.000000) scale(0.100000,-0.100000)"
fill="#000000" stroke="none">
<path d="M1243 4785 c-194 -42 -366 -197 -433 -390 l-25 -70 -3 -1607 -2
-1608 -153 -1 c-174 0 -211 -9 -244 -58 -44 -66 -21 -239 54 -391 73 -151 250
-291 410 -325 101 -22 2435 -22 2536 0 105 22 192 70 273 150 85 84 127 156
154 261 19 74 20 112 20 908 0 457 -3 943 -7 1081 -6 242 -7 250 -29 272 -30
30 -66 29 -101 -1 l-28 -24 3 -1069 c3 -1171 6 -1124 -55 -1236 -118 -216
-444 -258 -633 -81 -89 83 -130 201 -130 376 0 92 -4 104 -41 123 -23 13 -111
15 -548 15 -335 0 -529 -4 -547 -10 -55 -21 -70 -77 -33 -124 l20 -26 495 0
494 0 0 -47 c1 -120 60 -284 135 -373 l38 -45 -194 -3 c-107 -1 -552 -1 -989
0 l-795 3 -56 23 c-166 67 -286 219 -305 387 l-7 55 462 0 c277 0 470 4 480
10 31 16 45 64 29 96 -24 50 -43 54 -306 54 l-242 0 2 1598 3 1597 24 58 c43
109 139 205 248 249 l58 23 1274 3 1273 2 -30 -34 c-41 -47 -77 -110 -104
-182 -22 -58 -23 -69 -26 -604 -2 -300 0 -555 3 -567 15 -61 87 -82 130 -38
l25 24 0 340 0 340 444 3 444 3 26 24 c26 24 26 25 26 195 0 195 -13 266 -63
360 -63 119 -171 213 -305 265 l-67 26 -1510 2 c-1240 1 -1521 -1 -1572 -12z
m3062 -159 c118 -31 207 -105 258 -214 30 -63 32 -75 35 -199 l4 -133 -392 0
-392 0 4 133 c3 117 7 138 31 190 33 71 64 110 129 159 90 68 216 93 323 64z"/>
<path d="M2170 4317 c-371 -168 -965 -454 -985 -475 -35 -34 -41 -82 -19 -129
17 -34 35 -46 176 -118 l158 -80 0 -194 0 -193 32 -60 c64 -121 230 -243 398
-292 145 -43 410 -59 574 -36 54 8 71 8 78 -2 4 -7 8 -69 8 -137 l0 -124 -55
-104 c-30 -57 -55 -114 -55 -127 0 -37 37 -76 71 -76 44 0 66 15 90 62 23 46
24 45 61 -21 22 -40 57 -54 98 -40 65 23 65 65 1 200 l-49 104 -4 161 -5 161
66 32 c122 61 218 148 268 244 26 50 28 59 31 235 l4 182 151 74 c163 79 187
100 187 166 0 73 -14 84 -267 206 -129 63 -246 114 -259 114 -56 0 -93 -78
-60 -125 8 -11 93 -58 190 -104 97 -46 176 -87 176 -90 0 -6 -529 -263 -554
-269 -6 -1 -88 79 -181 179 -94 99 -178 185 -187 190 -50 27 -118 -13 -118
-70 0 -26 26 -58 160 -200 88 -93 160 -172 160 -175 0 -9 -158 -86 -176 -86
-17 0 -952 448 -959 460 -2 3 201 102 451 220 l455 213 172 -82 c95 -45 182
-81 195 -81 57 0 92 84 55 129 -21 24 -388 201 -418 201 -11 0 -63 -19 -115
-43z m-172 -1041 c173 -84 315 -146 331 -146 16 0 76 22 134 49 126 59 117 69
117 -130 l0 -137 -27 -6 c-61 -14 -339 -18 -428 -7 -165 22 -306 84 -394 172
-67 66 -71 80 -71 232 0 128 1 137 18 128 9 -5 153 -75 320 -155z m952 16 c0
-112 -1 -120 -28 -163 -30 -47 -99 -112 -151 -142 l-31 -18 0 94 c0 52 -3 127
-6 168 l-6 74 103 52 c57 28 107 52 112 52 4 1 7 -52 7 -117z"/>
<path d="M1544 1930 c-28 -11 -54 -48 -54 -76 0 -12 9 -33 21 -48 l20 -26 769
0 769 0 20 26 c29 36 27 75 -5 105 l-26 24 -746 2 c-411 1 -757 -2 -768 -7z"/>
<path d="M1534 1538 c-47 -22 -56 -86 -19 -123 l24 -25 761 0 761 0 24 25 c40
39 32 96 -16 120 -24 13 -138 15 -771 14 -490 0 -750 -4 -764 -11z"/>
</g>
</svg>
